<svg xmlns="http://www.w3.org/2000/svg" viewBox="0 0 150 150">
<!-- SVG created with Arrow, by QuiverAI (https://quiver.ai) -->
  <style type="text/css">.cls-0 {fill:#F1B73D;}
.cls-1 {fill:#FFDF88;}
.cls-2 {fill:#FDD46F;}
.cls-3 {fill:#E8AD3D;}
.cls-4 {fill:#FFC536;}
.cls-5 {fill:#C98D2A;}
.cls-6 {fill:#F8C156;}
.cls-7 {fill:#DD9C27;}
.cls-8 {fill:#FCCE65;}
.cls-9 {fill:#C98C2A;}
.cls-10 {fill:url(#SVGID_1_);}
.cls-11 {fill:url(#SVGID_2_);}
.cls-12 {fill:#70E4EA;}
.cls-13 {fill:#45C4D4;}</style>
  <path class="cls-0" d="m75.1 3-8 66.1-60.9 7.3 49.3 6.6 11.6 1.5 4.2 32.7 3.8 29.8 3.5-30 4.3-32.5 37.7-4.7 23.4-3.3-61.1-7.3-7.8-66.2z"/>
  <path class="cls-1" d="m74.7 61.2c0.5-4.3 0.4-58.2 0.4-58.2l-8 66.1-60.9 7.3 52.3 0.4c4.9-0.4 10.4-1.9 12.1-3.8 2.8-2.2 4.1-11.8 4.1-11.8z"/>
  <path class="cls-2" d="m45.7 46.7 21 13.4-0.9 7.3-20.1-20.7z"/>
  <path class="cls-3" d="m45.7 46.7c1.6 3.3 12.8 21.8 12.8 21.8l7.3-0.9v-0.7l-20.1-20.2z"/>
  <path class="cls-1" d="m105.8 44.8-22.4 15.3 0.9 7.3 21.5-22.6z"/>
  <path class="cls-3" d="m105.8 44.5-21.5 22.7 7.7 1.1s13.1-21.6 13.8-23.8z"/>
  <path class="cls-4" d="m65.9 76.8c5.1-0.4 8.7-1.3 9.2-9.9 1.1 8.2 2.9 9.1 9 9.9-5.7 0.9-8.2 1.8-9 9.8-0.9-8.5-3.4-9.1-9.2-9.8z"/>
  <path class="cls-5" d="m6.2 76.4 60.9 8.1 7.6 48.8 0.4 13.7v-51.8c0-3.6-1.6-12.2-4.3-14.5-2.4-2.1-9.4-3.9-14.4-3.9l-50.2-0.4z"/>
  <path class="cls-6" d="m58.7 85.4-13.4 23.2 20.4-22.2v-0.2l-7-0.8z"/>
  <path class="cls-7" d="m65.7 86.4-20.4 22.2 21.4-14.6-1-7.6z"/>
  <path class="cls-6" d="m84.4 86.2 20.2 22.4-13-23.3-7.2 0.8v0.1z"/>
  <path class="cls-9" d="m84.4 86.6-1.1 7.3 21.3 14.7-6.2-7.2-14-14.8z"/>
  <linearGradient id="SVGID_1_" x1="75.09" x2="141.3" y1="85.21" y2="85.21" gradientUnits="userSpaceOnUse">
    <stop stop-color="#D1932A" offset="0"/>
    <stop stop-color="#E8AD3D" offset="1"/>
  </linearGradient>
  <path class="cls-10" d="m94.2 76.8c-5.1 0-12.5 1.8-14.8 3.9s-4.3 10.7-4.3 14.5v20.5c1.3-0.5 2.6-0.9 3.8-1.7l4-29.5 37.7-4.7 2.5-3h-28.9z"/>
  <linearGradient id="SVGID_2_" x1="81.17" x2="125.3" y1="70.54" y2="70.54" gradientUnits="userSpaceOnUse">
    <stop stop-color="#E3A433" offset="0"/>
    <stop stop-color="#F4BD44" offset="1"/>
  </linearGradient>
  <path class="cls-11" d="m82.9 69.2 42.4 4.8-2.2 2.7h-29.1c-4.9 0-11.6-1.3-14.6-3.8-1.9-1.6-4.3-10.1-4.3-15.8l7.8 12.1z"/>
  <path class="cls-0" d="m129.2 28.6c-8.6-3.1-19.7-2.5-31.7 0.5-5.4 1.4-10.7 3.3-16.3 6.1l0.1 0.5c26.1-10 47.5-9.4 54.1 7 5.6 0 6.2 7.2 0.7 8.2-0.4 12.3-13 29.2-29.6 43.4-12 10.6-26.7 20.2-41.2 24.8-6.2 1.8-12.9 3.3-20.4 3.3 0 1.5-0.5 3-1.6 4.2 9.4-0.5 18.6-2.9 26.6-6.1 10.7-3.7 20.8-9.4 29.2-15.9 8.3-6.1 17.3-13.2 27.1-25.4 9.2-11.1 18.2-27.4 14.2-39.8-1.6-4-5.2-8.7-11.2-10.8z"/>
  <path class="cls-7" d="m31.1 120.3c-17.3-6.7-15-22.9 1.9-40.2l-1.1-0.3c-8.6 8.5-16.6 19.2-16.6 29.6 0.4 9.5 7.3 14.7 16.8 16.5-0.9-1.3-1.4-3.5-1-5.6z"/>
  <path class="cls-0" d="m38 116.6c-3 0-5.7 2.5-5.7 5.4 0 3.4 2.3 5.6 5.7 5.6 2.9 0 5.6-2.2 5.6-5.6 0-2.9-2.5-5.4-5.6-5.4z"/>
  <path class="cls-0" d="m135.9 43.7c-1.6-0.3-2.9 0.8-2.9 2.3-0.4 1.5 0.7 3 2.4 3.4 1.4 0 3-0.9 3-2.5 0.2-1.7-1-3-2.5-3.2z"/>
  <path class="cls-6" d="m129.6 74.6-1.4 1.9h15.8l-14.4-1.9z"/>
  <path class="cls-9" d="m128.2 76.7-2 2.3 17.8-2.4-15.8 0.1z"/>
  <path class="cls-0" d="m135.9 43.7c-1.6-0.3-2.9 0.8-2.9 2.3-0.4 1.5 0.7 3.4 2.4 3.7 1.4 0.3 3.2-1.1 3.3-2.7 0.2-1.6-1.3-3.1-2.8-3.3z"/>
  <path class="cls-12" d="m69 29.2c-17.5 3.8-35.8 16.2-40.3 40.7l0.6 0.2c2.8-12.7 17.3-32.9 39.7-40.3v-0.6z"/>
  <path class="cls-13" d="m80.6 124.4v0.6c18.9-0.6 41.1-13 45.1-40h-0.4c-2.7 13.9-18.1 35.5-44.7 39.4z"/>
  <path class="cls-7" d="m101.5 102.2-2.6 1.9 5.7 4.5-3.1-6.4z"/>
</svg>